<svg xmlns="http://www.w3.org/2000/svg" width="400" height="260" viewBox="0 0 400 260">
  <defs>
    <linearGradient id="bg" x1="0%" y1="0%" x2="100%" y2="100%">
      <stop offset="0%" style="stop-color:#0ea5e9;stop-opacity:1" />
      <stop offset="100%" style="stop-color:#0369a1;stop-opacity:1" />
    </linearGradient>
    <linearGradient id="wave" x1="0%" y1="0%" x2="100%" y2="0%">
      <stop offset="0%" style="stop-color:#38bdf8;stop-opacity:0.6" />
      <stop offset="100%" style="stop-color:#7dd3fc;stop-opacity:0.4" />
    </linearGradient>
  </defs>
  <rect width="400" height="260" fill="url(#bg)"/>
  <!-- Waves -->
  <path d="M0 160 Q50 140 100 160 Q150 180 200 160 Q250 140 300 160 Q350 180 400 160 L400 260 L0 260 Z" fill="url(#wave)"/>
  <path d="M0 180 Q60 160 120 180 Q180 200 240 180 Q300 160 360 180 Q390 190 400 185 L400 260 L0 260 Z" fill="rgba(14,165,233,0.5)"/>
  <!-- Swimmer silhouette -->
  <circle cx="200" cy="145" r="18" fill="#f97316"/>
  <path d="M182 145 Q200 135 218 145 Q230 155 240 150 L255 148" stroke="#f97316" stroke-width="4" fill="none" stroke-linecap="round"/>
  <path d="M182 145 Q170 155 160 150 L145 148" stroke="#f97316" stroke-width="4" fill="none" stroke-linecap="round"/>
  <!-- Bubbles -->
  <circle cx="160" cy="120" r="4" fill="rgba(255,255,255,0.4)"/>
  <circle cx="240" cy="115" r="3" fill="rgba(255,255,255,0.3)"/>
  <circle cx="200" cy="110" r="5" fill="rgba(255,255,255,0.3)"/>
  <!-- Label -->
  <text x="200" y="230" text-anchor="middle" font-family="Georgia, serif" font-size="16" fill="rgba(255,255,255,0.9)" font-weight="bold">Swimming</text>
</svg>
